<mxfile host="Electron" modified="2023-09-07T21:45:33.807Z" agent="Mozilla/5.0 (Windows NT 10.0; Win64; x64) AppleWebKit/537.36 (KHTML, like Gecko) draw.io/21.6.8 Chrome/114.0.5735.289 Electron/25.5.0 Safari/537.36" etag="-QMpMQC_tNs883XueN3m" version="21.6.8" type="device">
  <diagram name="Page-1" id="9y3NoypZbG92Jk5fJG0F">
    <mxGraphModel dx="2074" dy="1196" grid="1" gridSize="10" guides="1" tooltips="1" connect="1" arrows="1" fold="1" page="1" pageScale="1" pageWidth="1600" pageHeight="900" math="0" shadow="0">
      <root>
        <mxCell id="0" />
        <mxCell id="1" parent="0" />
        <mxCell id="u_KvTty-VVXu-OJ58iKp-28" style="edgeStyle=orthogonalEdgeStyle;rounded=0;orthogonalLoop=1;jettySize=auto;html=1;exitX=0.5;exitY=0;exitDx=0;exitDy=0;entryX=0.5;entryY=1;entryDx=0;entryDy=0;" edge="1" parent="1" source="u_KvTty-VVXu-OJ58iKp-5" target="u_KvTty-VVXu-OJ58iKp-18">
          <mxGeometry relative="1" as="geometry" />
        </mxCell>
        <mxCell id="u_KvTty-VVXu-OJ58iKp-31" style="rounded=0;orthogonalLoop=1;jettySize=auto;html=1;exitX=1;exitY=0;exitDx=0;exitDy=0;entryX=0;entryY=1;entryDx=0;entryDy=0;" edge="1" parent="1" source="u_KvTty-VVXu-OJ58iKp-5" target="u_KvTty-VVXu-OJ58iKp-19">
          <mxGeometry relative="1" as="geometry" />
        </mxCell>
        <mxCell id="u_KvTty-VVXu-OJ58iKp-39" style="edgeStyle=orthogonalEdgeStyle;rounded=0;orthogonalLoop=1;jettySize=auto;html=1;entryX=0.5;entryY=0;entryDx=0;entryDy=0;" edge="1" parent="1" source="u_KvTty-VVXu-OJ58iKp-5" target="u_KvTty-VVXu-OJ58iKp-22">
          <mxGeometry relative="1" as="geometry" />
        </mxCell>
        <mxCell id="u_KvTty-VVXu-OJ58iKp-5" value="Customer" style="rounded=1;whiteSpace=wrap;html=1;" vertex="1" parent="1">
          <mxGeometry x="360" y="350" width="120" height="40" as="geometry" />
        </mxCell>
        <mxCell id="u_KvTty-VVXu-OJ58iKp-34" style="edgeStyle=orthogonalEdgeStyle;rounded=0;orthogonalLoop=1;jettySize=auto;html=1;exitX=0.5;exitY=0;exitDx=0;exitDy=0;entryX=0.5;entryY=1;entryDx=0;entryDy=0;" edge="1" parent="1" source="u_KvTty-VVXu-OJ58iKp-6" target="u_KvTty-VVXu-OJ58iKp-20">
          <mxGeometry relative="1" as="geometry" />
        </mxCell>
        <mxCell id="u_KvTty-VVXu-OJ58iKp-37" style="edgeStyle=orthogonalEdgeStyle;rounded=0;orthogonalLoop=1;jettySize=auto;html=1;exitX=0;exitY=0.5;exitDx=0;exitDy=0;entryX=1;entryY=0.5;entryDx=0;entryDy=0;" edge="1" parent="1" source="u_KvTty-VVXu-OJ58iKp-6" target="u_KvTty-VVXu-OJ58iKp-21">
          <mxGeometry relative="1" as="geometry" />
        </mxCell>
        <mxCell id="u_KvTty-VVXu-OJ58iKp-6" value="Admin" style="rounded=1;whiteSpace=wrap;html=1;" vertex="1" parent="1">
          <mxGeometry x="1070" y="380" width="120" height="40" as="geometry" />
        </mxCell>
        <mxCell id="u_KvTty-VVXu-OJ58iKp-41" style="edgeStyle=orthogonalEdgeStyle;rounded=0;orthogonalLoop=1;jettySize=auto;html=1;entryX=0.5;entryY=1;entryDx=0;entryDy=0;" edge="1" parent="1" source="u_KvTty-VVXu-OJ58iKp-8" target="u_KvTty-VVXu-OJ58iKp-19">
          <mxGeometry relative="1" as="geometry" />
        </mxCell>
        <mxCell id="u_KvTty-VVXu-OJ58iKp-8" value="Employee" style="rounded=1;whiteSpace=wrap;html=1;" vertex="1" parent="1">
          <mxGeometry x="530" y="560" width="120" height="40" as="geometry" />
        </mxCell>
        <mxCell id="u_KvTty-VVXu-OJ58iKp-30" style="edgeStyle=orthogonalEdgeStyle;rounded=0;orthogonalLoop=1;jettySize=auto;html=1;exitX=0.5;exitY=0;exitDx=0;exitDy=0;entryX=0.5;entryY=1;entryDx=0;entryDy=0;" edge="1" parent="1" source="u_KvTty-VVXu-OJ58iKp-18" target="u_KvTty-VVXu-OJ58iKp-23">
          <mxGeometry relative="1" as="geometry" />
        </mxCell>
        <mxCell id="u_KvTty-VVXu-OJ58iKp-18" value="Customer Registraion/Login" style="shape=ellipse;html=1;dashed=0;whiteSpace=wrap;perimeter=ellipsePerimeter;" vertex="1" parent="1">
          <mxGeometry x="360" y="170" width="120" height="120" as="geometry" />
        </mxCell>
        <mxCell id="u_KvTty-VVXu-OJ58iKp-43" style="edgeStyle=orthogonalEdgeStyle;rounded=0;orthogonalLoop=1;jettySize=auto;html=1;exitX=1;exitY=0.5;exitDx=0;exitDy=0;entryX=0;entryY=0.5;entryDx=0;entryDy=0;" edge="1" parent="1" source="u_KvTty-VVXu-OJ58iKp-19" target="u_KvTty-VVXu-OJ58iKp-20">
          <mxGeometry relative="1" as="geometry" />
        </mxCell>
        <mxCell id="u_KvTty-VVXu-OJ58iKp-44" style="edgeStyle=orthogonalEdgeStyle;rounded=0;orthogonalLoop=1;jettySize=auto;html=1;exitX=0.5;exitY=0;exitDx=0;exitDy=0;entryX=0.5;entryY=1;entryDx=0;entryDy=0;" edge="1" parent="1" source="u_KvTty-VVXu-OJ58iKp-19" target="u_KvTty-VVXu-OJ58iKp-24">
          <mxGeometry relative="1" as="geometry" />
        </mxCell>
        <mxCell id="u_KvTty-VVXu-OJ58iKp-45" style="rounded=0;orthogonalLoop=1;jettySize=auto;html=1;exitX=1;exitY=1;exitDx=0;exitDy=0;entryX=0;entryY=0.5;entryDx=0;entryDy=0;" edge="1" parent="1" source="u_KvTty-VVXu-OJ58iKp-19" target="u_KvTty-VVXu-OJ58iKp-21">
          <mxGeometry relative="1" as="geometry" />
        </mxCell>
        <mxCell id="u_KvTty-VVXu-OJ58iKp-19" value="Booking Management" style="shape=ellipse;html=1;dashed=0;whiteSpace=wrap;perimeter=ellipsePerimeter;" vertex="1" parent="1">
          <mxGeometry x="530" y="210" width="120" height="120" as="geometry" />
        </mxCell>
        <mxCell id="u_KvTty-VVXu-OJ58iKp-35" style="rounded=0;orthogonalLoop=1;jettySize=auto;html=1;exitX=1;exitY=0;exitDx=0;exitDy=0;entryX=0.5;entryY=1;entryDx=0;entryDy=0;" edge="1" parent="1" source="u_KvTty-VVXu-OJ58iKp-20" target="u_KvTty-VVXu-OJ58iKp-25">
          <mxGeometry relative="1" as="geometry" />
        </mxCell>
        <mxCell id="u_KvTty-VVXu-OJ58iKp-20" value="Employee Management" style="shape=ellipse;html=1;dashed=0;whiteSpace=wrap;perimeter=ellipsePerimeter;" vertex="1" parent="1">
          <mxGeometry x="1070" y="211" width="120" height="120" as="geometry" />
        </mxCell>
        <mxCell id="u_KvTty-VVXu-OJ58iKp-38" style="rounded=0;orthogonalLoop=1;jettySize=auto;html=1;exitX=0;exitY=1;exitDx=0;exitDy=0;entryX=0.5;entryY=0;entryDx=0;entryDy=0;" edge="1" parent="1" source="u_KvTty-VVXu-OJ58iKp-21" target="u_KvTty-VVXu-OJ58iKp-26">
          <mxGeometry relative="1" as="geometry" />
        </mxCell>
        <mxCell id="u_KvTty-VVXu-OJ58iKp-21" value="Service&lt;br&gt;Management" style="shape=ellipse;html=1;dashed=0;whiteSpace=wrap;perimeter=ellipsePerimeter;" vertex="1" parent="1">
          <mxGeometry x="840" y="340" width="120" height="120" as="geometry" />
        </mxCell>
        <mxCell id="u_KvTty-VVXu-OJ58iKp-40" style="edgeStyle=orthogonalEdgeStyle;rounded=0;orthogonalLoop=1;jettySize=auto;html=1;exitX=0.5;exitY=1;exitDx=0;exitDy=0;entryX=0.5;entryY=0;entryDx=0;entryDy=0;" edge="1" parent="1" source="u_KvTty-VVXu-OJ58iKp-22" target="u_KvTty-VVXu-OJ58iKp-27">
          <mxGeometry relative="1" as="geometry" />
        </mxCell>
        <mxCell id="u_KvTty-VVXu-OJ58iKp-22" value="Rewards System" style="shape=ellipse;html=1;dashed=0;whiteSpace=wrap;perimeter=ellipsePerimeter;" vertex="1" parent="1">
          <mxGeometry x="360" y="470" width="120" height="120" as="geometry" />
        </mxCell>
        <mxCell id="u_KvTty-VVXu-OJ58iKp-23" value="Customer Database" style="html=1;dashed=0;whiteSpace=wrap;shape=partialRectangle;right=0;" vertex="1" parent="1">
          <mxGeometry x="370" y="85" width="100" height="30" as="geometry" />
        </mxCell>
        <mxCell id="u_KvTty-VVXu-OJ58iKp-24" value="Appointments Database" style="html=1;dashed=0;whiteSpace=wrap;shape=partialRectangle;right=0;" vertex="1" parent="1">
          <mxGeometry x="540" y="131" width="100" height="30" as="geometry" />
        </mxCell>
        <mxCell id="u_KvTty-VVXu-OJ58iKp-25" value="Employee Database" style="html=1;dashed=0;whiteSpace=wrap;shape=partialRectangle;right=0;" vertex="1" parent="1">
          <mxGeometry x="1160" y="131" width="100" height="30" as="geometry" />
        </mxCell>
        <mxCell id="u_KvTty-VVXu-OJ58iKp-26" value="Services Database" style="html=1;dashed=0;whiteSpace=wrap;shape=partialRectangle;right=0;" vertex="1" parent="1">
          <mxGeometry x="760" y="500" width="100" height="30" as="geometry" />
        </mxCell>
        <mxCell id="u_KvTty-VVXu-OJ58iKp-27" value="Rewards Database" style="html=1;dashed=0;whiteSpace=wrap;shape=partialRectangle;right=0;" vertex="1" parent="1">
          <mxGeometry x="370" y="640" width="100" height="30" as="geometry" />
        </mxCell>
      </root>
    </mxGraphModel>
  </diagram>
</mxfile>
